<svg xmlns="http://www.w3.org/2000/svg" viewBox="0 0 981.38 690.73"><g id="Final_Version" data-name="Final Version"><path d="M475.55,675.28C518.18,692.06,558,694.4,602.94,686c35.44-6.62,70.72-16.48,106.77-15.82,27.74.5,54.93,7.22,82.33,11.5s56.12,6,82.3-3.17C926,660.45,938.07,613.11,951,566.06c9.23-33.71,8.94-69.42,4.27-103.83-5.67-41.81-17.64-82.47-26.72-123.67-11.44-51.85-14.45-122.87-71.37-145-18.28-7.12-37.85-10.38-56.3-17-24.85-9-47-23.94-70.3-36.46s-48.89-22.89-75.28-21.41c-18.1,1-35.74,7.59-53.85,6.8-22.09-1-43.08-14-54.47-32.87s-24.33-32.36-45.39-41.39c-39.21-16.82-88.49-10.28-119.76,19.54C361,90.55,350.35,118,342.12,145c-7.46,24.42-28.34,41.9-50.77,53.85-14.88,7.92-30.43,12.4-45.17,20.67-17.44,9.78-34.3,21.21-46.78,37.08-15.42,19.61-22.92,44.33-27,69-5.26,32-4.2,67.82,16.39,92.87,11.33,13.77,27.61,23,37.92,37.56,17.81,25.09,13.75,57.62,18.61,86.42,4.91,29.09,18.85,51,46,64.36,23.62,11.6,50.23,15.24,75.44,22.81C404.31,640.84,439.25,661,475.55,675.28Z" style="fill:#d7e7ff"/><path d="M475.55,675.28C518.18,692.06,558,694.4,602.94,686c35.44-6.62,70.72-16.48,106.77-15.82,27.74.5,54.93,7.22,82.33,11.5s56.12,6,82.3-3.17C926,660.45,938.07,613.11,951,566.06c9.23-33.71,8.94-69.42,4.27-103.83-5.67-41.81-17.64-82.47-26.72-123.67-11.44-51.85-14.45-122.87-71.37-145-18.28-7.12-37.85-10.38-56.3-17-24.85-9-47-23.94-70.3-36.46s-48.89-22.89-75.28-21.41c-18.1,1-35.74,7.59-53.85,6.8-22.09-1-43.08-14-54.47-32.87s-24.33-32.36-45.39-41.39c-39.21-16.82-88.49-10.28-119.76,19.54C361,90.55,350.35,118,342.12,145c-7.46,24.42-28.34,41.9-50.77,53.85-14.88,7.92-30.43,12.4-45.17,20.67-17.44,9.78-34.3,21.21-46.78,37.08-15.42,19.61-22.92,44.33-27,69-5.26,32-4.2,67.82,16.39,92.87,11.33,13.77,27.61,23,37.92,37.56,17.81,25.09,13.75,57.62,18.61,86.42,4.91,29.09,18.85,51,46,64.36,23.62,11.6,50.23,15.24,75.44,22.81C404.31,640.84,439.25,661,475.55,675.28Z" style="fill:#d7e7ff"/><path d="M753.29,358.29H691.14a27.73,27.73,0,0,1,0-55.45h62.15a27.73,27.73,0,1,1,0,55.45Zm-62.15-49.36a21.63,21.63,0,0,0,0,43.26h62.15a21.63,21.63,0,0,0,0-43.26Z" style="fill:#2017c9"/><circle cx="692.06" cy="330.41" r="17.06" style="fill:#2017c9"/><path d="M741.48,344.67a1.5,1.5,0,0,0-.55-.11,2.08,2.08,0,0,0-1.82,1.94,9.11,9.11,0,0,0,.38,2.87,12.57,12.57,0,0,1-2.17,9.9c-1.62,2.18-5.54,5.39-8.33,4.67.35.09,3.8-5.32,4.22-5.93a49.38,49.38,0,0,0,3.95-6.44,32.16,32.16,0,0,0,3-15.86,36.73,36.73,0,0,0-.76-5.72c-.37-1.71-.71-3.87-1.78-5.3A1.63,1.63,0,0,0,736,324a1.6,1.6,0,0,0-1,1,4.33,4.33,0,0,0-.21,1.47c0,2.26.57,4.72.26,6.92a32.31,32.31,0,0,1-1.84,6.38,34.61,34.61,0,0,1-8.74,13.4,66.56,66.56,0,0,0,5.05-12.27,63.86,63.86,0,0,0,1.66-10.19,61.85,61.85,0,0,0-.74-17.55,7.54,7.54,0,0,0-.9-2.67,2.75,2.75,0,0,0-2.33-1.36,2.66,2.66,0,0,0-2,1.25,6.55,6.55,0,0,0-.84,2.27c-.85,4-.56,8.15-.87,12.22a40.93,40.93,0,0,1-8.52,22.37,12.27,12.27,0,0,1-1.53,1.68c.55-.47.68-3.14.81-3.88.25-1.34.45-2.68.59-4a38,38,0,0,0-.11-7.69,32.25,32.25,0,0,0-2.09-8.54c-.78-2-3.44-8.88-6.8-6.37a2.38,2.38,0,0,0-.85,1.76,7.53,7.53,0,0,0,.24,2c1.18,5.33,2.45,10.36,1.61,15.86-1.51,9.78-8.58,20-19.62,18.69-4.8-.58-9.48-3.87-10.76-8.59a37,37,0,0,1-1-13.89c.27-2.35,2.62-8.59-.78-9.64a3.24,3.24,0,0,0-2.9.74,8.47,8.47,0,0,0-1.85,2.5c-3,5.47-3.32,11.59-3.75,17.79a43.29,43.29,0,0,0,.34,9.31c.66,4.54,1.32,9.3,2.21,13.88s1.07,9,1.65,13.62c1.07,8.6.75,17.51-2.2,25.66-5.16,14.18-17.07,23.38-29,31.68-13.06,9.09-28.73,15.48-44.88,14.93C576.37,454.08,548,433.2,548,433.2l-8.58,56.63s27,7.16,42.58,8.49c24.87,2.11,49.75-11.94,67.79-27.91,14-12.41,26.56-27.34,37.21-42.65,5.34-7.69,9.06-16.56,14.54-24.28s32-30.15,38.57-35.48c4.59-3.76,6-8.76,5.16-14.52C745,351.75,743.73,345.58,741.48,344.67Z" style="fill:#703b1e"/><path d="M544.64,560.52c0,34.86-6,102.33-8.56,129.37a215.94,215.94,0,0,1-60.53-14.61C447,664,419.24,649.14,390.44,637.82c-7.78-3.06-15.63-5.86-23.61-8.25-19.87-6-40.61-9.5-60.09-16.41,7.76-71,35.81-248.93,122.41-256.28,1.84-.17,3.7-.25,5.6-.25,36.59,0,61,16.64,77.28,40.65l0,0C530.72,424.82,538.71,462,542.12,495,545,522.44,544.64,546.93,544.64,560.52Z" style="fill:#e4746e"/><path d="M489.35,474.82s41.47,26.26,105.06,26.26,98.14-77.41,98.14-77.41l-29-16.59s-29,45.62-78.79,33.18-77.41-48.38-77.41-48.38Z" style="fill:#e4746e"/><path d="M542.72,499.44c-16.52-3.56-47.05-12.35-65.9-31.2l2.94-2.93c18.09,18.09,47.76,26.61,63.84,30.08Z" style="fill:#d7e7ff"/><path d="M512.16,285.58c0,20.91-7.72,39.78-20.1,53-.81.88-1.65,1.75-2.51,2.58-11.07,10.66-25.37,17.1-41,17.1-35.13,0-63.59-32.56-63.59-72.71s28.46-72.71,63.59-72.71S512.16,245.42,512.16,285.58Z" style="fill:#703b1e"/><path d="M815.12,582.31c-7.09.42-14.72.65-22.67.65s-15.59-.23-22.68-.65c7.1-.42,14.73-.65,22.68-.65S808,581.89,815.12,582.31Z" style="opacity:0.43"/><path d="M861.19,593.22a1.84,1.84,0,0,1-.06.47c0-.28,0-.56,0-.84A1.55,1.55,0,0,1,861.19,593.22Z" style="opacity:0.43"/><g id="Plant_vase" data-name="Plant vase"><path d="M860.19,571.58c0,4.95-18.81,9.16-45.07,10.73-4.91.29-10.09.49-15.45.59q-3.55.06-7.22.06c-8,0-15.59-.23-22.68-.65l-1.94-.12-1.26-.09c-3.75-.26-7.33-.58-10.71-.94L754.4,581c-1-.12-2-.23-2.92-.36l-1.22-.15c-3.21-.43-6.19-.92-8.89-1.43l-.83-.17-.81-.16-.8-.17c-1.58-.34-3-.7-4.37-1.07l-.5-.14c-.61-.17-1.19-.35-1.74-.53l-.48-.15q-1.35-.45-2.46-.93l-.85-.38-.06,0-.42-.21-.39-.21-.31-.17a7.71,7.71,0,0,1-1.92-1.49,1.09,1.09,0,0,1-.13-.17,2.55,2.55,0,0,1-.57-1.17.71.71,0,0,1,0-.15,1.1,1.1,0,0,1,0-.18c0-6.29,30.33-11.39,67.75-11.39q5,0,9.89.12C835.06,561.11,860.19,565.85,860.19,571.58Z" style="fill:#2017c9"/><path d="M860.19,571.58c0,4.95-18.81,9.16-45.07,10.73-4.91.29-10.09.49-15.45.59a80.83,80.83,0,0,1,2.67-22.59C835.06,561.11,860.19,565.85,860.19,571.58Z" style="opacity:0.43"/><path d="M792.7,604.71s18-53.91,74.65-85.71,12.44-91.23-20.74-73.26S787.17,521.77,792.7,604.71Z" style="fill:#27927a"/><path d="M843.16,486.52a75,75,0,0,0-7.71,8.82c-2.41,3.07-4.58,6.31-6.71,9.57a181.5,181.5,0,0,0-11.18,20.5l-2.44,5.31c-.78,1.79-1.46,3.62-2.22,5.41-1.57,3.57-2.76,7.29-4.16,10.94-.72,1.82-1.24,3.7-1.87,5.55L805,558.19c-1.15,3.74-2.16,7.52-3.34,11.27.74-3.85,1.57-7.69,2.4-11.53,1-3.78,2-7.61,3.17-11.35s2.39-7.5,3.88-11.14c.72-1.83,1.42-3.68,2.19-5.49l2.42-5.39a143.29,143.29,0,0,1,11.69-20.51,104,104,0,0,1,7.26-9.33A63,63,0,0,1,843.16,486.52Z" style="fill:#fff"/><path d="M786.48,605.4A249.49,249.49,0,0,0,779,529.23c-4.47-17.05-11.44-35.25-24.24-47.85-14-13.81-40.8-24.45-60.08-15.76-13.47,6.07-14.62,22.63-10.14,35,7.78,21.43,28,28.39,44.85,40.94,17.4,12.93,34.53,27.66,47.24,45.37C780.66,592.57,784.35,598.71,786.48,605.4Z" style="fill:#27927a"/><path d="M742.25,511.4a129.28,129.28,0,0,1,13.17,13.41,139.81,139.81,0,0,1,11.28,15.1,97.2,97.2,0,0,1,8.74,16.74,62.89,62.89,0,0,1,2.86,9,50,50,0,0,1,1.27,9.33A71,71,0,0,0,774,557.25q-1.9-4.23-4.19-8.29c-1.49-2.72-3.1-5.37-4.79-8s-3.42-5.19-5.23-7.71-3.68-5-5.58-7.48-3.86-4.89-5.86-7.28S744.32,513.75,742.25,511.4Z" style="fill:#fff"/><path d="M793.9,593.65s-4.65-109.89,23-162.42S792,377.32,776.81,434,793.9,593.65,793.9,593.65Z" style="fill:#27927a"/><path d="M798.92,429.85a119.74,119.74,0,0,0-4,12.5l-.86,3.17-.77,3.19c-.54,2.12-1,4.26-1.43,6.4-1.77,8.57-3.05,17.22-4,25.91-.4,4.36-.86,8.71-1.05,13.08-.11,2.18-.32,4.36-.36,6.55l-.18,6.56c0,1.1-.09,2.19-.09,3.29l0,3.28v6.58c0,4.38.28,8.76.31,13.16q-.37-3.27-.68-6.56c-.2-2.18-.47-4.37-.61-6.57l-.32-6.59-.15-3.29c0-1.1,0-2.2,0-3.3V500.6c0-2.2.15-4.4.22-6.6.13-4.41.58-8.79,1-13.18a206.63,206.63,0,0,1,4.45-26.05A123.08,123.08,0,0,1,798.92,429.85Z" style="fill:#fff"/><path d="M861.13,593.7c-.55,21.86-5.17,57-25.5,91.41-14.51.36-29.22-1.19-43.58-3.43-8.46-1.33-16.9-2.88-25.34-4.4-7.94-1.43-15.87-2.86-23.83-4.06-15-30.44-18.62-60.13-19.11-79.5,1,3.86,13.15,7.22,31.19,9.2a354.86,354.86,0,0,0,37.49,1.86C829.48,604.78,859.67,599.86,861.13,593.7Z" style="fill:#2017c9"/><path d="M861.17,591.93c0,.3,0,.61,0,.92s0,.56,0,.84c-1.47,6.17-31.66,11.09-68.68,11.09A352,352,0,0,1,755,602.91c-18-2-30.21-5.34-31.19-9.19,0-.3,0-.6,0-.89a141.3,141.3,0,0,1,.91-21.25h0a1.1,1.1,0,0,0,0,.18.71.71,0,0,0,0,.15,2.55,2.55,0,0,0,.57,1.17,1.09,1.09,0,0,0,.13.17,7.71,7.71,0,0,0,1.92,1.49l.31.17.39.21.42.21.06,0,.85.38q1.11.48,2.46.93l.48.15c.55.18,1.13.36,1.74.53l.5.14c1.33.37,2.79.73,4.37,1.07l.8.17.81.16.83.17c2.7.51,5.68,1,8.89,1.43l1.22.15c1,.13,1.93.24,2.92.36l1.46.16c3.38.36,7,.68,10.71.94l1.26.09,1.94.12c7.09.42,14.72.65,22.68.65q3.66,0,7.22-.06c5.36-.1,10.54-.3,15.45-.59,26.26-1.57,45.07-5.78,45.07-10.73h0A140.58,140.58,0,0,1,861.17,591.93Z" style="fill:#ffb5b3"/><path d="M766.71,677.28c-7.94-1.43-15.87-2.86-23.83-4.06-15-30.44-18.62-60.13-19.11-79.5a1.66,1.66,0,0,1-.07-.49,1.13,1.13,0,0,1,0-.41,141.22,141.22,0,0,1,.91-21.24h0a1.15,1.15,0,0,0,0,.18,1,1,0,0,0,0,.19,1.35,1.35,0,0,0,.09.33,1.31,1.31,0,0,0,.12.27,1.49,1.49,0,0,0,.14.24,4.51,4.51,0,0,0,1.2,1.25c.12.1.26.19.4.29a10.3,10.3,0,0,0,1.37.79,2.22,2.22,0,0,0,.41.2,8.58,8.58,0,0,0,.92.42,5.48,5.48,0,0,0,.56.23,39.66,39.66,0,0,0,4.79,1.57c.6.16,1.24.33,1.9.49q1.47.36,3.09.69l.81.17,1.26.25c1.22.23,2.5.46,3.83.66s2.42.38,3.68.56h.11l1.52.21c1.66.22,3.37.41,5.14.61A174.82,174.82,0,0,0,755,602.92C755.07,621,757.57,646.36,766.71,677.28Z" style="opacity:0.43"/></g><path d="M612.75,159.34a35.91,35.91,0,0,0-18.92,47.12c13.11,30.69,58.33,61.32,64.17,58.82,6.62-2.82,14.74-56.9,1.88-87A35.92,35.92,0,0,0,612.75,159.34Zm20.64,48.32a16.64,16.64,0,1,1,8.76-21.83A16.65,16.65,0,0,1,633.39,207.66Z" style="fill:#2017c9"/><path d="M959.78,103.17a60.2,60.2,0,0,0-84.77,7.6c-35.85,42.92-47.17,133.76-39,140.58,9.25,7.73,96.2-21.29,131.38-63.42A60.17,60.17,0,0,0,959.78,103.17Zm-56.46,67.58a27.88,27.88,0,1,1,39.28-3.52A27.89,27.89,0,0,1,903.32,170.75Z" style="fill:#2017c9"/><path d="M629.08,90.92c17.49-12.63,56.47-48.31,43.17-72.62-5-9.18-15-14.77-25.25-16.93S626.17,0,615.74.88c-14.92,1.19-31.81,3.45-40.49,15.65C567,28.19,569.67,44.17,573.51,58c3.24,11.65,7.34,23.65,16,32.05C601.44,101.49,616.53,100,629.08,90.92Z" style="fill:#d7e7ff"/><path d="M212.69,243.42c16.06,2.14,31.54,8.65,47.77,9.24,24,.87,46.57-11.26,66.43-24.83s38.92-29.18,61.7-36.92c20.25-6.88,42.68-6.63,63-.08,19.59,6.32,41.78,19,47.7,40,3.67,13.06.55,27.48-6.75,38.91a68.7,68.7,0,0,1-19.35,19.46c-7.66,5.22-15,7.82-19.56,16.52s-6.5,18.15-8.94,27.5-5.5,18.84-11.61,26.33c-7.5,9.19-18.47,14.38-28.05,21-11.29,7.8-17.18,17.75-23,30-7.16,15.08-13.61,31.6-27.12,41.4-12.64,9.16-24.94,8.26-39.84,10.18-15.24,2-30.49,5.7-43.86,13.53-37.56,22-51.34,67.73-82.11,96.78-13.11,12.37-29.32,22.08-47.15,24.73-18.52,2.75-37.65-2.34-53.88-11.68s-29.83-22.69-41.79-37.1C26.79,524.93,11,497.86,3.93,468.2s-4.95-62.1,9.39-89,41.63-47.44,72-50.25c6.76-.63,13.64-.41,20.24-2,17.88-4.26,22.31-24.66,29.71-39,13.58-26.29,41.29-46.85,71.57-45.11Q209.78,243,212.69,243.42Z" style="fill:#282828"/></g></svg>