<svg id="Outline" xmlns="http://www.w3.org/2000/svg" viewBox="0 0 24 24"><path d="M12,17.75a3.91,3.91,0,0,1-2.24-.67L1.58,11.35A3,3,0,0,1,.22,8.92,3,3,0,0,1,1.58,6.49L9.76.76a4.09,4.09,0,0,1,4.48,0l8.18,5.73a3,3,0,0,1,1.37,2.43,3,3,0,0,1-1.37,2.43l-8.18,5.73A3.91,3.91,0,0,1,12,17.75ZM12,2.59a1.45,1.45,0,0,0-.8.22L3,8.54c-.21.15-.29.3-.29.38s.08.23.29.39L11.2,15a1.6,1.6,0,0,0,1.61,0L21,9.31h0c.22-.16.3-.3.3-.39s-.08-.23-.3-.38L12.81,2.81A1.51,1.51,0,0,0,12,2.59Z"/><path d="M12,23.91a6.8,6.8,0,0,1-3.87-1.14L.63,17.52a1.24,1.24,0,0,1-.31-1.74,1.26,1.26,0,0,1,1.74-.31l7.5,5.25a4.71,4.71,0,0,0,4.87,0l7.51-5.26a1.25,1.25,0,0,1,1.44,2l-7.52,5.26A6.83,6.83,0,0,1,12,23.91Z"/></svg>