<svg id="Outline" xmlns="http://www.w3.org/2000/svg" viewBox="0 0 24 24"><path d="M12,23.18a8.35,8.35,0,0,1-1.22-.09A8,8,0,0,1,4,15.63a7.89,7.89,0,0,1,1-4.32L10.48,1.7A1.75,1.75,0,0,1,12,.82h0a1.75,1.75,0,0,1,1.52.87L19,11.25a8.14,8.14,0,0,1,1,3.9,8,8,0,0,1-8,8ZM12,4.07,7.12,12.53a5.42,5.42,0,0,0-.65,3,5.58,5.58,0,0,0,4.67,5.12,5.54,5.54,0,0,0,6.4-5.46,5.61,5.61,0,0,0-.66-2.64l0,0Z"/><line x1="11.05" y1="4.39" x2="11.04" y2="4.37" style="fill:none;stroke:#000;stroke-miterlimit:10;stroke-width:2.5px"/><line x1="11.06" y1="4.38" x2="11.05" y2="4.39" style="fill:none;stroke:#000;stroke-miterlimit:10;stroke-width:2.5px"/></svg>