<svg id="Outline" xmlns="http://www.w3.org/2000/svg" viewBox="0 0 24 24"><line x1="11.05" y1="4.39" x2="11.04" y2="4.37" style="fill:none;stroke:#000;stroke-miterlimit:10;stroke-width:2.5px"/><line x1="11.06" y1="4.38" x2="11.05" y2="4.39" style="fill:none;stroke:#000;stroke-miterlimit:10;stroke-width:2.5px"/><path d="M8.72,7.24a1.24,1.24,0,0,0,1.7-.45L12,4.07l4.83,8.38.08.12a5.68,5.68,0,0,1,.63,2.58,1,1,0,0,1,0,.17,1.25,1.25,0,0,0,1,1.48l.26,0a1.24,1.24,0,0,0,1.22-1,3,3,0,0,0,.06-.69,8.25,8.25,0,0,0-.95-3.82L13.5,1.67A1.78,1.78,0,0,0,12,.82h0a1.74,1.74,0,0,0-1.49.88L8.26,5.54A1.24,1.24,0,0,0,8.72,7.24Z"/><path d="M20.13,20.58,5.64,6.08a1.27,1.27,0,0,0-1.77,0,1.25,1.25,0,0,0,0,1.77L5.81,9.79l-.87,1.52a8,8,0,0,0,5.83,11.78,8.35,8.35,0,0,0,1.22.09,8,8,0,0,0,5.25-1.95l1.12,1.12a1.28,1.28,0,0,0,.89.36,1.25,1.25,0,0,0,.88-2.13Zm-9,0a5.53,5.53,0,0,1-4-8.07l.53-.92,7.83,7.83A5.57,5.57,0,0,1,11.14,20.61Z"/></svg>