<svg id="Outline" xmlns="http://www.w3.org/2000/svg" viewBox="0 0 24 24"><path d="M20,15.15a8,8,0,0,1-8,8h0a8.25,8.25,0,0,1-1.22-.09A8,8,0,0,1,4,15.63a7.84,7.84,0,0,1,1-4.32L10.48,1.7a1.76,1.76,0,0,1,2.42-.58,1.69,1.69,0,0,1,.58.58L19,11.25A8.2,8.2,0,0,1,20,15.15Z"/><line x1="11.05" y1="4.39" x2="11.04" y2="4.37" style="fill:none;stroke:#000;stroke-miterlimit:10;stroke-width:2.5px"/><line x1="11.06" y1="4.38" x2="11.05" y2="4.39" style="fill:none;stroke:#000;stroke-miterlimit:10;stroke-width:2.5px"/></svg>